<svg xmlns="http://www.w3.org/2000/svg" viewBox="0 0 48 48"><title>Food delivery</title><g id="Food_delivery" data-name="Food delivery"><path d="M15,5a1,1,0,1,0-.71-1.71A1,1,0,0,0,15,5Z"/><path d="M9.47,21.85a1,1,0,0,0,1.06,0C10.71,21.73,15,19,15,14.75A4.88,4.88,0,0,0,10,10a4.88,4.88,0,0,0-5,4.75C5,19,9.29,21.73,9.47,21.85ZM10,12c3.55,0,4.4,4.33,0,7.77C5.61,16.34,6.44,12,10,12Z"/><path d="M41.93,21A8,8,0,0,0,35,14.07a1,1,0,1,0-2,0A8,8,0,0,0,26.07,21,1,1,0,1,0,26,23c.31,0,.1-.48,1,3.24A1,1,0,0,0,28,27H40a1,1,0,0,0,1-.76L41.78,23C43.44,23,43.32,21,41.93,21ZM34,16a6,6,0,0,1,5.92,5H28.08A6,6,0,0,1,34,16Zm5.22,9H28.78l-.5-2H39.72Z"/><path d="M43,9H29V4a4,4,0,0,0-4-4H5A4,4,0,0,0,1,4V44a4,4,0,0,0,4,4H25a4,4,0,0,0,4-4V31.66l.92-.66H43a4,4,0,0,0,4-4V13A4,4,0,0,0,43,9ZM5,2H25a2,2,0,0,1,2,2V5c-9.5,0-9.56-.24-9.92.61a2.26,2.26,0,0,1-4.16,0C12.56,4.77,12.47,5,3,5V4A2,2,0,0,1,5,2ZM25,46H5a2,2,0,0,1-2-2V42H27v2A2,2,0,0,1,25,46Zm2-6H3V7h8.4a4.26,4.26,0,0,0,7.2,0H27V9H25a4,4,0,0,0-4,4V27a4,4,0,0,0,2,3.45V34a1,1,0,0,0,1,1c.43,0,.36,0,3-1.91ZM45,27a2,2,0,0,1-2,2H29.6c-.43,0-.39.05-4.6,3.06,0-2,.09-2.4-.2-2.81-.14-.2-.09-.14-.26-.25-2-1.3-1.54,1.07-1.54-16a2,2,0,0,1,2-2H43a2,2,0,0,1,2,2Z"/><path d="M23,36H8.5a1.5,1.5,0,0,1,0-3h5a3.5,3.5,0,0,0,0-7H12a1,1,0,0,1-1-1V24a1,1,0,0,0-2,0v1a3,3,0,0,0,3,3h1.5a1.5,1.5,0,0,1,0,3h-5a3.5,3.5,0,0,0,0,7H23A1,1,0,0,0,23,36Z"/><path d="M10,16a1,1,0,0,0,0-2A1,1,0,0,0,10,16Z"/></g></svg>